<svg xmlns="http://www.w3.org/2000/svg" style="height: 0; width: 0; position: absolute;"><symbol id="icon-location" viewBox="0 0 32 32"><title>location</title><g class="nc-icon-wrapper"><g id="1706432785708-7691883_Page-1" stroke="none" fill="none" fill-rule="evenodd"><g id="1706432785708-7691883_Icon-Set" transform="translate(-104 -411)" fill="currentColor" stroke="none"><path d="M116,426 C114.343,426 113,424.657 113,423 C113,421.343 114.343,420 116,420 C117.657,420 119,421.343 119,423 C119,424.657 117.657,426 116,426 L116,426 Z M116,418 C113.239,418 111,420.238 111,423 C111,425.762 113.239,428 116,428 C118.761,428 121,425.762 121,423 C121,420.238 118.761,418 116,418 L116,418 Z M116,440 C114.337,440.009 106,427.181 106,423 C106,417.478 110.477,413 116,413 C121.523,413 126,417.478 126,423 C126,427.125 117.637,440.009 116,440 L116,440 Z M116,411 C109.373,411 104,416.373 104,423 C104,428.018 114.005,443.011 116,443 C117.964,443.011 128,427.95 128,423 C128,416.373 122.627,411 116,411 L116,411 Z" id="1706432785708-7691883_location" fill="currentColor" stroke="none"></path></g></g></g></symbol><symbol id="icon-wind" viewBox="0 0 24 24"><title>wind</title><g class="nc-icon-wrapper"><path fill-rule="evenodd" clip-rule="evenodd" d="M6.25 5.5C6.25 3.70508 7.70507 2.25 9.5 2.25C11.2949 2.25 12.75 3.70507 12.75 5.5C12.75 7.29493 11.2949 8.75 9.5 8.75H3C2.58579 8.75 2.25 8.41421 2.25 8C2.25 7.58579 2.58579 7.25 3 7.25H9.5C10.4665 7.25 11.25 6.4665 11.25 5.5C11.25 4.5335 10.4665 3.75 9.5 3.75C8.5335 3.75 7.75 4.5335 7.75 5.5V5.85714C7.75 6.27136 7.41421 6.60714 7 6.60714C6.58579 6.60714 6.25 6.27136 6.25 5.85714V5.5ZM14.25 7.5C14.25 5.15279 16.1528 3.25 18.5 3.25C20.8472 3.25 22.75 5.15279 22.75 7.5C22.75 9.84721 20.8472 11.75 18.5 11.75H2C1.58579 11.75 1.25 11.4142 1.25 11C1.25 10.5858 1.58579 10.25 2 10.25H18.5C20.0188 10.25 21.25 9.01878 21.25 7.5C21.25 5.98122 20.0188 4.75 18.5 4.75C16.9812 4.75 15.75 5.98122 15.75 7.5V8C15.75 8.41421 15.4142 8.75 15 8.75C14.5858 8.75 14.25 8.41421 14.25 8V7.5ZM3.25 14C3.25 13.5858 3.58579 13.25 4 13.25H18.5C20.8472 13.25 22.75 15.1528 22.75 17.5C22.75 19.8472 20.8472 21.75 18.5 21.75C16.1528 21.75 14.25 19.8472 14.25 17.5V17C14.25 16.5858 14.5858 16.25 15 16.25C15.4142 16.25 15.75 16.5858 15.75 17V17.5C15.75 19.0188 16.9812 20.25 18.5 20.25C20.0188 20.25 21.25 19.0188 21.25 17.5C21.25 15.9812 20.0188 14.75 18.5 14.75H4C3.58579 14.75 3.25 14.4142 3.25 14Z" fill="currentColor" id="1706431019210-4806499_SVGRepo_iconCarrier" stroke="none"></path></g></symbol><symbol id="icon-search" viewBox="0 0 24 24"><title>search</title><g class="nc-icon-wrapper"><path d="M15.7955 15.8111L21 21M18 10.5C18 14.6421 14.6421 18 10.5 18C6.35786 18 3 14.6421 3 10.5C3 6.35786 6.35786 3 10.5 3C14.6421 3 18 6.35786 18 10.5Z" stroke="currentColor" fill="none"></path></g></symbol><symbol id="icon-humidity" viewBox="0 0 64 64"><title>humidity</title><g class="nc-icon-wrapper"><g id="1706431019210-4813154_humidity" fill="currentColor" stroke="none"><path d="M49.7,35.9C47.3,21.2,29.5,4,28.7,3.3c-0.4-0.4-1-0.4-1.4,0C26.4,4.1,6,23.7,6,39c0,12.1,9.9,22,22,22 c3.4,0,6.7-0.8,9.7-2.3c2.1,1.4,4.6,2.3,7.3,2.3c7.2,0,13-5.8,13-13C58,42.5,54.6,37.8,49.7,35.9z M28,59C17,59,8,50,8,39 C8,26.1,24.4,9,28,5.4C31.3,8.7,45,23,47.6,35.3C46.7,35.1,45.9,35,45,35c-7.2,0-13,5.8-13,13c0,3.7,1.5,7,4,9.3 C33.5,58.4,30.8,59,28,59z M45,59c-6.1,0-11-4.9-11-11s4.9-11,11-11s11,4.9,11,11S51.1,59,45,59z" fill="currentColor" stroke="none"></path><path d="M28,54c-8.3,0-15-6.7-15-15c0-0.6-0.4-1-1-1s-1,0.4-1,1c0,9.4,7.6,17,17,17c0.6,0,1-0.4,1-1S28.6,54,28,54z" fill="currentColor" stroke="none"></path><path d="M48.4,40.1c-0.5-0.2-1.1,0-1.3,0.5l-6,14c-0.2,0.5,0,1.1,0.5,1.3C41.7,56,41.9,56,42,56c0.4,0,0.8-0.2,0.9-0.6l6-14 C49.1,40.9,48.9,40.3,48.4,40.1z" fill="currentColor" stroke="none"></path><path d="M44,44c0-1.7-1.3-3-3-3s-3,1.3-3,3s1.3,3,3,3S44,45.7,44,44z M40,44c0-0.6,0.4-1,1-1s1,0.4,1,1s-0.4,1-1,1S40,44.6,40,44z" fill="currentColor" stroke="none"></path><path d="M49,49c-1.7,0-3,1.3-3,3s1.3,3,3,3s3-1.3,3-3S50.7,49,49,49z M49,53c-0.6,0-1-0.4-1-1s0.4-1,1-1s1,0.4,1,1S49.6,53,49,53z" fill="currentColor" stroke="none"></path></g></g></symbol></svg>